<?xml version="1.0" encoding="UTF-8" standalone="no"?>
<!-- Created with Inkscape (http://www.inkscape.org/) -->

<svg
   xmlns:dc="http://purl.org/dc/elements/1.1/"
   xmlns:cc="http://creativecommons.org/ns#"
   xmlns:rdf="http://www.w3.org/1999/02/22-rdf-syntax-ns#"
   xmlns:svg="http://www.w3.org/2000/svg"
   xmlns="http://www.w3.org/2000/svg"
   xmlns:xlink="http://www.w3.org/1999/xlink"
   xmlns:sodipodi="http://sodipodi.sourceforge.net/DTD/sodipodi-0.dtd"
   xmlns:inkscape="http://www.inkscape.org/namespaces/inkscape"
   width="100"
   height="100"
   id="svg2"
   version="1.1"
   inkscape:version="0.48.5 r10040"
   sodipodi:docname="galaxy.svg">
  <defs
     id="defs4">
    <filter
       inkscape:collect="always"
       id="filter4641">
      <feGaussianBlur
         inkscape:collect="always"
         stdDeviation="0.49769491"
         id="feGaussianBlur4643" />
    </filter>
  </defs>
  <sodipodi:namedview
     id="base"
     pagecolor="#000000"
     bordercolor="#666666"
     borderopacity="1.0"
     inkscape:pageopacity="0.49411765"
     inkscape:pageshadow="2"
     inkscape:zoom="2.8284271"
     inkscape:cx="50.477573"
     inkscape:cy="39.016874"
     inkscape:document-units="px"
     inkscape:current-layer="layer1"
     showgrid="false"
     inkscape:window-width="1433"
     inkscape:window-height="682"
     inkscape:window-x="260"
     inkscape:window-y="136"
     inkscape:window-maximized="0" />
  <metadata
     id="metadata7">
    <rdf:RDF>
      <cc:Work
         rdf:about="">
        <dc:format>image/svg+xml</dc:format>
        <dc:type
           rdf:resource="http://purl.org/dc/dcmitype/StillImage" />
        <dc:title />
      </cc:Work>
    </rdf:RDF>
  </metadata>
  <g
     inkscape:label="Ebene 1"
     inkscape:groupmode="layer"
     id="layer1"
     transform="translate(0,-952.36218)">
    <g
       id="g4599"
       transform="matrix(1.3135353,0,0,1.3710064,-13.894462,-366.65578)"
       style="filter:url(#filter4641)">
      <g
         id="g4593">
        <path
           sodipodi:nodetypes="cccccccccc"
           inkscape:connector-curvature="0"
           id="path3897"
           d="m 73.6875,999.7997 c 0,0 -0.148652,-7.22597 -1.542793,-10.30192 -1.936449,-4.13458 -6.727198,-11.26967 -19.414243,-11.24559 -12.319218,0.0427 -16.498486,7.03082 -16.710928,11.98895 0.133656,9.62125 6.509326,12.95106 12.542964,12.93356 l 0,-9.25002 c -4.252676,0.0867 -6.043187,0.56236 -7.442569,-1.9468 -1.841071,-4.81214 3.782,-10.94077 11.382015,-11.03027 12.241886,0.10851 16.290983,5.38989 19.062244,9.51881 1.810622,3.15276 2.12331,9.33328 2.12331,9.33328 z"
           style="fill:#ffffff;fill-opacity:1;stroke:#ffffff;stroke-width:0.79637724;stroke-linecap:round;stroke-linejoin:round;stroke-miterlimit:4;stroke-opacity:1;stroke-dasharray:none;stroke-dashoffset:0" />
        <path
           style="fill:#ffffff;fill-opacity:1;stroke:#ffffff;stroke-width:0.79637724;stroke-linecap:round;stroke-linejoin:round;stroke-miterlimit:4;stroke-opacity:1;stroke-dasharray:none;stroke-dashoffset:0;marker-start:none"
           d="m 53.092346,987.67468 c 0,0 7.962271,1.57781 12.084455,6.88474 5.269307,5.95578 3.479164,18.18728 3.479164,18.18728 0,0 1.062239,-11.7127 -4.280965,-17.66631 -4.345158,-4.99661 -11.282654,-7.40571 -11.282654,-7.40571 z"
           id="path3921"
           inkscape:connector-curvature="0"
           sodipodi:nodetypes="ccccc" />
      </g>
      <use
         height="100"
         width="100"
         transform="matrix(-1,0,0,-1,97.28625,1997.0993)"
         id="use4597"
         xlink:href="#g4593"
         y="0"
         x="0" />
    </g>
  </g>
</svg>
