<?xml version="1.0" encoding="UTF-8" standalone="no"?>
<!-- Created with Inkscape (http://www.inkscape.org/) -->

<svg
   xmlns:dc="http://purl.org/dc/elements/1.1/"
   xmlns:cc="http://creativecommons.org/ns#"
   xmlns:rdf="http://www.w3.org/1999/02/22-rdf-syntax-ns#"
   xmlns:svg="http://www.w3.org/2000/svg"
   xmlns="http://www.w3.org/2000/svg"
   xmlns:sodipodi="http://sodipodi.sourceforge.net/DTD/sodipodi-0.dtd"
   xmlns:inkscape="http://www.inkscape.org/namespaces/inkscape"
   width="100"
   height="100"
   id="svg2"
   version="1.1"
   inkscape:version="0.48.5 r10040"
   sodipodi:docname="gear.svg">
  <defs
     id="defs4" />
  <sodipodi:namedview
     id="base"
     pagecolor="#000000"
     bordercolor="#666666"
     borderopacity="1.0"
     inkscape:pageopacity="0.50196078"
     inkscape:pageshadow="2"
     inkscape:zoom="8"
     inkscape:cx="50.389614"
     inkscape:cy="50.238281"
     inkscape:document-units="px"
     inkscape:current-layer="layer1"
     showgrid="true"
     inkscape:window-width="1920"
     inkscape:window-height="1018"
     inkscape:window-x="-8"
     inkscape:window-y="-8"
     inkscape:window-maximized="1">
    <inkscape:grid
       type="xygrid"
       id="grid3863"
       empspacing="5"
       visible="true"
       enabled="true"
       snapvisiblegridlinesonly="true" />
  </sodipodi:namedview>
  <metadata
     id="metadata7">
    <rdf:RDF>
      <cc:Work
         rdf:about="">
        <dc:format>image/svg+xml</dc:format>
        <dc:type
           rdf:resource="http://purl.org/dc/dcmitype/StillImage" />
        <dc:title></dc:title>
      </cc:Work>
    </rdf:RDF>
  </metadata>
  <g
     inkscape:label="Ebene 1"
     inkscape:groupmode="layer"
     id="layer1">
    <path
       style="fill:none;stroke:#ffffff;stroke-width:1;stroke-miterlimit:4;stroke-opacity:1;stroke-dasharray:none"
       d="m 41.0625,11.03125 c -1.137941,0.262747 -2.305889,0.569822 -3.4375,0.9375 -1.131615,0.367688 -2.2062,0.793695 -3.28125,1.25 0.04337,2.710483 0.644161,6.288699 1.78125,10.15625 -2.718144,1.621339 -5.192534,3.389515 -7.15625,5.21875 C 25.634896,26.312698 22.440626,24.628646 19.875,23.75 c -0.766176,0.881432 -1.550623,1.787399 -2.25,2.75 -0.699374,0.962613 -1.304726,1.967693 -1.90625,2.96875 1.628268,2.167335 4.213036,4.695699 7.40625,7.15625 -1.274369,2.608623 -2.190805,5.684073 -2.71875,8.40625 -4.037913,0.114176 -7.626666,0.640294 -10.21875,1.4375 C 10.085741,47.632186 10,48.810151 10,50 c 0,1.189849 0.08574,2.367814 0.1875,3.53125 2.592084,0.797206 6.180837,1.323324 10.21875,1.4375 0.533134,3.302458 1.523218,5.650636 2.71875,8.40625 -3.199629,2.465796 -5.777796,5.018958 -7.40625,7.1875 0.601526,1.001052 1.206874,1.974892 1.90625,2.9375 0.699376,0.962608 1.483824,1.868573 2.25,2.75 2.565627,-0.878636 5.759899,-2.562695 9.09375,-4.84375 2.11133,2.085074 4.554857,3.789974 7.15625,5.21875 -1.139196,3.875567 -1.73844,7.444681 -1.78125,10.15625 1.075048,0.4563 2.149637,0.882316 3.28125,1.25 1.131614,0.367683 2.299561,0.674757 3.4375,0.9375 1.559186,-2.218869 3.174879,-5.476249 4.53125,-9.28125 2.920134,0.430792 5.894893,0.394935 8.8125,0 1.356371,3.805001 2.972064,7.062381 4.53125,9.28125 1.137939,-0.262743 2.305887,-0.569817 3.4375,-0.9375 1.131614,-0.367684 2.2062,-0.793699 3.28125,-1.25 -0.0428,-2.71157 -0.642055,-6.280685 -1.78125,-10.15625 2.735302,-1.41387 4.96863,-3.165104 7.15625,-5.21875 3.333851,2.281056 6.528125,3.965114 9.09375,4.84375 0.766176,-0.881427 1.550625,-1.787393 2.25,-2.75 0.699375,-0.962609 1.304723,-1.967696 1.90625,-2.96875 -1.628447,-2.168549 -4.206621,-4.690454 -7.40625,-7.15625 1.311513,-2.672691 2.168945,-5.480615 2.71875,-8.40625 4.037913,-0.114176 7.626666,-0.640294 10.21875,-1.4375 C 89.914259,52.367814 90,51.189849 90,50 90,48.810151 89.91426,47.632186 89.8125,46.46875 87.221271,45.672409 83.62339,45.144953 79.59375,45.03125 79.176973,41.903489 78.060901,39.362218 76.875,36.625 80.074629,34.159204 82.652796,31.637292 84.28125,29.46875 83.679724,28.467698 83.074375,27.462608 82.375,26.5 c -0.699376,-0.962608 -1.483824,-1.868573 -2.25,-2.75 -2.564425,0.878833 -5.76687,2.567175 -9.09375,4.84375 -2.263107,-2.008577 -4.813161,-3.842295 -7.15625,-5.21875 1.139201,-3.875565 1.73844,-7.444686 1.78125,-10.15625 -1.075052,-0.456298 -2.149633,-0.882319 -3.28125,-1.25 -1.131617,-0.36768 -2.299547,-0.674797 -3.4375,-0.9375 -1.558094,2.218319 -3.177885,5.483971 -4.53125,9.28125 -2.897793,-0.447049 -5.901518,-0.36279 -8.8125,0 -1.356375,-3.804999 -2.97207,-7.062373 -4.53125,-9.28125 z M 50,30 C 61.045695,30 70,38.954305 70,50 70,61.045695 61.045695,70 50,70 38.954305,70 30,61.045695 30,50 30,38.954305 38.954305,30 50,30 z"
       id="path3910"
       inkscape:connector-curvature="0"
       sodipodi:nodetypes="csccccsccccsccccsccccsccccsccccsccccsccccsccccsccccsssss" />
  </g>
</svg>
